<svg id="visual" viewBox="0 0 900 450" width="900" height="450" xmlns="http://www.w3.org/2000/svg" xmlns:xlink="http://www.w3.org/1999/xlink" version="1.1"><g stroke-width="1" stroke-linejoin="bevel"><path d="M456 206L424 226L448 249Z" fill="#1f1447" stroke="#1f1447"></path><path d="M456 206L409 206L424 226Z" fill="#1f144a" stroke="#1f144a"></path><path d="M519 164L468 164L456 206Z" fill="#1d133a" stroke="#1d133a"></path><path d="M456 206L437 153L409 206Z" fill="#1f1447" stroke="#1f1447"></path><path d="M351 229L425 289L424 226Z" fill="#1f1447" stroke="#1f1447"></path><path d="M424 226L425 289L448 249Z" fill="#1e133d" stroke="#1e133d"></path><path d="M389 160L384 188L409 206Z" fill="#1e133d" stroke="#1e133d"></path><path d="M409 206L351 229L424 226Z" fill="#1f1450" stroke="#1f1450"></path><path d="M468 164L437 153L456 206Z" fill="#1f1447" stroke="#1f1447"></path><path d="M468 164L458 146L437 153Z" fill="#1e133d" stroke="#1e133d"></path><path d="M425 289L485 300L448 249Z" fill="#1f1450" stroke="#1f1450"></path><path d="M448 249L551 264L456 206Z" fill="#1f1557" stroke="#1f1557"></path><path d="M379 141L389 160L437 153Z" fill="#1f144a" stroke="#1f144a"></path><path d="M437 153L389 160L409 206Z" fill="#1f155a" stroke="#1f155a"></path><path d="M324 222L351 229L384 188Z" fill="#1e133d" stroke="#1e133d"></path><path d="M384 188L351 229L409 206Z" fill="#1f1447" stroke="#1f1447"></path><path d="M551 264L519 164L456 206Z" fill="#1f1557" stroke="#1f1557"></path><path d="M468 164L477 132L458 146Z" fill="#1f1447" stroke="#1f1447"></path><path d="M519 164L477 132L468 164Z" fill="#1f1450" stroke="#1f1450"></path><path d="M458 146L458 121L437 153Z" fill="#1e1340" stroke="#1e1340"></path><path d="M351 229L389 311L425 289Z" fill="#1e133d" stroke="#1e133d"></path><path d="M425 289L432 330L485 300Z" fill="#1f155a" stroke="#1f155a"></path><path d="M389 311L432 330L425 289Z" fill="#1d133a" stroke="#1d133a"></path><path d="M477 132L458 121L458 146Z" fill="#1f144a" stroke="#1f144a"></path><path d="M387 114L379 141L437 153Z" fill="#1f144d" stroke="#1f144d"></path><path d="M389 160L320 159L384 188Z" fill="#1f1554" stroke="#1f1554"></path><path d="M498 327L536 291L485 300Z" fill="#1f1450" stroke="#1f1450"></path><path d="M485 300L551 264L448 249Z" fill="#1e1340" stroke="#1e1340"></path><path d="M536 291L551 264L485 300Z" fill="#1d133a" stroke="#1d133a"></path><path d="M432 330L498 327L485 300Z" fill="#1e1340" stroke="#1e1340"></path><path d="M362 330L387 324L389 311Z" fill="#1e1340" stroke="#1e1340"></path><path d="M389 311L387 324L432 330Z" fill="#1e133d" stroke="#1e133d"></path><path d="M477 132L478 108L458 121Z" fill="#1f1447" stroke="#1f1447"></path><path d="M424 99L387 114L437 153Z" fill="#1e1444" stroke="#1e1444"></path><path d="M525 112L478 108L477 132Z" fill="#1e1444" stroke="#1e1444"></path><path d="M320 159L324 222L384 188Z" fill="#1f1554" stroke="#1f1554"></path><path d="M351 229L362 330L389 311Z" fill="#1d133a" stroke="#1d133a"></path><path d="M324 222L322 232L351 229Z" fill="#1f1554" stroke="#1f1554"></path><path d="M424 99L437 153L458 121Z" fill="#1d133a" stroke="#1d133a"></path><path d="M379 141L320 159L389 160Z" fill="#1e1340" stroke="#1e1340"></path><path d="M478 108L424 99L458 121Z" fill="#1e1444" stroke="#1e1444"></path><path d="M551 264L562 167L519 164Z" fill="#1e1444" stroke="#1e1444"></path><path d="M519 164L525 112L477 132Z" fill="#1f155a" stroke="#1f155a"></path><path d="M387 324L409 352L432 330Z" fill="#1f155a" stroke="#1f155a"></path><path d="M432 330L448 364L498 327Z" fill="#1f144a" stroke="#1f144a"></path><path d="M311 239L362 330L351 229Z" fill="#1f155a" stroke="#1f155a"></path><path d="M387 324L362 330L409 352Z" fill="#1d133a" stroke="#1d133a"></path><path d="M324 222L311 239L322 232Z" fill="#1f144a" stroke="#1f144a"></path><path d="M322 232L311 239L351 229Z" fill="#1f1557" stroke="#1f1557"></path><path d="M281 161L311 239L324 222Z" fill="#1e1340" stroke="#1e1340"></path><path d="M409 352L448 364L432 330Z" fill="#1f1447" stroke="#1f1447"></path><path d="M562 167L525 112L519 164Z" fill="#1f144d" stroke="#1f144d"></path><path d="M418 54L393 62L424 99Z" fill="#1f1447" stroke="#1f1447"></path><path d="M591 217L573 169L562 167Z" fill="#1f1447" stroke="#1f1447"></path><path d="M562 167L564 96L525 112Z" fill="#1f1557" stroke="#1f1557"></path><path d="M463 380L523 347L498 327Z" fill="#1f144d" stroke="#1f144d"></path><path d="M498 327L523 347L536 291Z" fill="#1f144a" stroke="#1f144a"></path><path d="M536 291L576 297L551 264Z" fill="#1f1557" stroke="#1f1557"></path><path d="M331 87L320 159L379 141Z" fill="#1d133a" stroke="#1d133a"></path><path d="M576 297L591 217L551 264Z" fill="#1f1450" stroke="#1f1450"></path><path d="M551 264L591 217L562 167Z" fill="#1f144a" stroke="#1f144a"></path><path d="M523 347L576 297L536 291Z" fill="#1f144a" stroke="#1f144a"></path><path d="M433 431L463 380L448 364Z" fill="#1f1450" stroke="#1f1450"></path><path d="M448 364L463 380L498 327Z" fill="#1e1444" stroke="#1e1444"></path><path d="M386 401L448 364L409 352Z" fill="#1e1444" stroke="#1e1444"></path><path d="M418 54L424 99L478 108Z" fill="#1f155a" stroke="#1f155a"></path><path d="M424 99L393 62L387 114Z" fill="#1f144d" stroke="#1f144d"></path><path d="M387 114L331 87L379 141Z" fill="#1e1340" stroke="#1e1340"></path><path d="M422 47L418 54L478 108Z" fill="#1f144d" stroke="#1f144d"></path><path d="M580 104L564 96L562 167Z" fill="#1f144a" stroke="#1f144a"></path><path d="M501 48L422 47L478 108Z" fill="#1f1450" stroke="#1f1450"></path><path d="M580 104L562 167L573 169Z" fill="#1f1447" stroke="#1f1447"></path><path d="M311 239L304 330L362 330Z" fill="#1f1447" stroke="#1f1447"></path><path d="M362 330L386 401L409 352Z" fill="#1f155a" stroke="#1f155a"></path><path d="M561 399L557 364L523 347Z" fill="#1e133d" stroke="#1e133d"></path><path d="M523 347L586 337L576 297Z" fill="#1f1450" stroke="#1f1450"></path><path d="M557 364L586 337L523 347Z" fill="#1e1444" stroke="#1e1444"></path><path d="M637 198L622 190L591 217Z" fill="#1f144d" stroke="#1f144d"></path><path d="M277 100L281 161L320 159Z" fill="#1e1340" stroke="#1e1340"></path><path d="M320 159L281 161L324 222Z" fill="#1f155a" stroke="#1f155a"></path><path d="M311 239L264 286L304 330Z" fill="#1f1450" stroke="#1f1450"></path><path d="M304 330L319 352L362 330Z" fill="#1e133d" stroke="#1e133d"></path><path d="M633 268L591 217L576 297Z" fill="#1e1444" stroke="#1e1444"></path><path d="M591 217L622 190L573 169Z" fill="#1f1450" stroke="#1f1450"></path><path d="M393 62L331 87L387 114Z" fill="#1e133d" stroke="#1e133d"></path><path d="M618 114L580 104L573 169Z" fill="#1e1444" stroke="#1e1444"></path><path d="M418 54L422 47L393 62Z" fill="#1f1450" stroke="#1f1450"></path><path d="M302 66L277 100L331 87Z" fill="#1f155a" stroke="#1f155a"></path><path d="M501 48L478 108L525 112Z" fill="#1f144a" stroke="#1f144a"></path><path d="M319 352L386 401L362 330Z" fill="#1f1447" stroke="#1f1447"></path><path d="M520 430L561 399L523 347Z" fill="#1f1450" stroke="#1f1450"></path><path d="M531 58L525 112L564 96Z" fill="#1f155a" stroke="#1f155a"></path><path d="M531 58L501 48L525 112Z" fill="#1f144d" stroke="#1f144d"></path><path d="M527 40L531 58L550 31Z" fill="#1f1557" stroke="#1f1557"></path><path d="M637 198L628 169L622 190Z" fill="#1d133a" stroke="#1d133a"></path><path d="M622 190L628 169L573 169Z" fill="#1f1557" stroke="#1f1557"></path><path d="M628 322L633 268L576 297Z" fill="#1f144d" stroke="#1f144d"></path><path d="M238 202L264 286L311 239Z" fill="#1f144a" stroke="#1f144a"></path><path d="M304 330L301 354L319 352Z" fill="#1d133a" stroke="#1d133a"></path><path d="M633 268L637 198L591 217Z" fill="#1f1450" stroke="#1f1450"></path><path d="M292 365L301 354L249 311Z" fill="#1e1340" stroke="#1e1340"></path><path d="M319 352L354 418L386 401Z" fill="#1e1444" stroke="#1e1444"></path><path d="M550 31L531 58L564 96Z" fill="#1e1340" stroke="#1e1340"></path><path d="M531 58L527 40L501 48Z" fill="#1f1554" stroke="#1f1554"></path><path d="M501 48L440 0L422 47Z" fill="#1f1554" stroke="#1f1554"></path><path d="M401 450L433 431L386 401Z" fill="#1d133a" stroke="#1d133a"></path><path d="M386 401L433 431L448 364Z" fill="#1e1444" stroke="#1e1444"></path><path d="M656 339L628 322L586 337Z" fill="#1e1340" stroke="#1e1340"></path><path d="M586 337L628 322L576 297Z" fill="#1e1340" stroke="#1e1340"></path><path d="M628 169L618 114L573 169Z" fill="#1d133a" stroke="#1d133a"></path><path d="M580 104L550 31L564 96Z" fill="#1e1340" stroke="#1e1340"></path><path d="M685 159L618 114L628 169Z" fill="#1d133a" stroke="#1d133a"></path><path d="M520 430L523 347L463 380Z" fill="#1e133d" stroke="#1e133d"></path><path d="M557 364L561 399L586 337Z" fill="#1e1340" stroke="#1e1340"></path><path d="M249 311L301 354L304 330Z" fill="#1f1554" stroke="#1f1554"></path><path d="M301 354L292 365L319 352Z" fill="#1e133d" stroke="#1e133d"></path><path d="M203 124L238 202L281 161Z" fill="#1d133a" stroke="#1d133a"></path><path d="M281 161L238 202L311 239Z" fill="#1f155a" stroke="#1f155a"></path><path d="M302 66L331 87L353 5Z" fill="#1f155a" stroke="#1f155a"></path><path d="M331 87L277 100L320 159Z" fill="#1f155a" stroke="#1f155a"></path><path d="M298 398L354 418L319 352Z" fill="#1d133a" stroke="#1d133a"></path><path d="M264 286L249 311L304 330Z" fill="#1f1450" stroke="#1f1450"></path><path d="M216 249L249 311L264 286Z" fill="#1f155a" stroke="#1f155a"></path><path d="M693 306L659 259L633 268Z" fill="#1f144a" stroke="#1f144a"></path><path d="M633 268L659 259L637 198Z" fill="#1f144d" stroke="#1f144d"></path><path d="M637 198L685 159L628 169Z" fill="#1f1450" stroke="#1f1450"></path><path d="M353 5L331 87L393 62Z" fill="#1d133a" stroke="#1d133a"></path><path d="M504 450L520 430L463 380Z" fill="#1f1447" stroke="#1f1447"></path><path d="M593 0L550 31L580 104Z" fill="#1f1554" stroke="#1f1554"></path><path d="M532 0L440 0L501 48Z" fill="#1e133d" stroke="#1e133d"></path><path d="M401 450L439 450L433 431Z" fill="#1f1557" stroke="#1f1557"></path><path d="M433 431L504 450L463 380Z" fill="#1e1340" stroke="#1e1340"></path><path d="M558 430L573 413L561 399Z" fill="#1f1450" stroke="#1f1450"></path><path d="M561 399L573 413L586 337Z" fill="#1f1447" stroke="#1f1447"></path><path d="M532 0L501 48L527 40Z" fill="#1f1450" stroke="#1f1450"></path><path d="M422 47L401 0L393 62Z" fill="#1e1444" stroke="#1e1444"></path><path d="M292 365L298 398L319 352Z" fill="#1f1557" stroke="#1f1557"></path><path d="M376 450L401 450L386 401Z" fill="#1e1444" stroke="#1e1444"></path><path d="M260 373L298 398L292 365Z" fill="#1f144a" stroke="#1f144a"></path><path d="M440 0L428 0L422 47Z" fill="#1f1450" stroke="#1f1450"></path><path d="M376 450L386 401L354 418Z" fill="#1e133d" stroke="#1e133d"></path><path d="M210 220L218 221L238 202Z" fill="#1e133d" stroke="#1e133d"></path><path d="M238 202L216 249L264 286Z" fill="#1e1340" stroke="#1e1340"></path><path d="M439 450L504 450L433 431Z" fill="#1e1444" stroke="#1e1444"></path><path d="M520 430L558 430L561 399Z" fill="#1f1557" stroke="#1f1557"></path><path d="M428 0L401 0L422 47Z" fill="#1f1450" stroke="#1f1450"></path><path d="M218 221L216 249L238 202Z" fill="#1f144d" stroke="#1f144d"></path><path d="M504 450L558 430L520 430Z" fill="#1f1450" stroke="#1f1450"></path><path d="M302 450L376 450L354 418Z" fill="#1f1450" stroke="#1f1450"></path><path d="M174 152L210 220L238 202Z" fill="#1f144a" stroke="#1f144a"></path><path d="M218 221L210 220L216 249Z" fill="#1f144a" stroke="#1f144a"></path><path d="M699 273L682 251L659 259Z" fill="#1e133d" stroke="#1e133d"></path><path d="M659 259L682 251L637 198Z" fill="#1e1444" stroke="#1e1444"></path><path d="M670 331L633 268L628 322Z" fill="#1f1450" stroke="#1f1450"></path><path d="M213 336L260 373L249 311Z" fill="#1e133d" stroke="#1e133d"></path><path d="M249 311L260 373L292 365Z" fill="#1f1554" stroke="#1f1554"></path><path d="M298 398L302 450L354 418Z" fill="#1f1447" stroke="#1f1447"></path><path d="M670 331L656 339L678 384Z" fill="#1f144d" stroke="#1f144d"></path><path d="M636 409L656 339L586 337Z" fill="#1f155a" stroke="#1f155a"></path><path d="M401 0L353 5L393 62Z" fill="#1f1447" stroke="#1f1447"></path><path d="M556 0L532 0L550 31Z" fill="#1e133d" stroke="#1e133d"></path><path d="M550 31L532 0L527 40Z" fill="#1e133d" stroke="#1e133d"></path><path d="M636 409L586 337L573 413Z" fill="#1e1444" stroke="#1e1444"></path><path d="M656 339L670 331L628 322Z" fill="#1f144d" stroke="#1f144d"></path><path d="M702 204L685 159L637 198Z" fill="#1e1340" stroke="#1e1340"></path><path d="M593 0L556 0L550 31Z" fill="#1f144a" stroke="#1f144a"></path><path d="M655 82L580 104L618 114Z" fill="#1d133a" stroke="#1d133a"></path><path d="M302 66L252 67L277 100Z" fill="#1f1447" stroke="#1f1447"></path><path d="M277 100L203 124L281 161Z" fill="#1f144d" stroke="#1f144d"></path><path d="M286 0L252 67L302 66Z" fill="#1f1557" stroke="#1f1557"></path><path d="M685 159L655 82L618 114Z" fill="#1e133d" stroke="#1e133d"></path><path d="M682 251L702 204L637 198Z" fill="#1f155a" stroke="#1f155a"></path><path d="M718 217L702 204L682 251Z" fill="#1f155a" stroke="#1f155a"></path><path d="M693 306L699 273L659 259Z" fill="#1e1340" stroke="#1e1340"></path><path d="M187 322L213 336L249 311Z" fill="#1e133d" stroke="#1e133d"></path><path d="M187 322L249 311L216 249Z" fill="#1f144d" stroke="#1f144d"></path><path d="M150 192L189 252L210 220Z" fill="#1e133d" stroke="#1e133d"></path><path d="M210 220L189 252L216 249Z" fill="#1e133d" stroke="#1e133d"></path><path d="M189 252L189 253L216 249Z" fill="#1f1450" stroke="#1f1450"></path><path d="M670 331L693 306L633 268Z" fill="#1d133a" stroke="#1d133a"></path><path d="M504 450L578 450L558 430Z" fill="#1d133a" stroke="#1d133a"></path><path d="M558 430L578 450L573 413Z" fill="#1e133d" stroke="#1e133d"></path><path d="M670 331L728 367L693 306Z" fill="#1f155a" stroke="#1f155a"></path><path d="M589 450L636 409L573 413Z" fill="#1f1450" stroke="#1f1450"></path><path d="M702 204L702 159L685 159Z" fill="#1d133a" stroke="#1d133a"></path><path d="M685 159L703 116L655 82Z" fill="#1e133d" stroke="#1e133d"></path><path d="M219 81L203 124L277 100Z" fill="#1f144d" stroke="#1f144d"></path><path d="M578 450L589 450L573 413Z" fill="#1e133d" stroke="#1e133d"></path><path d="M236 64L233 69L252 67Z" fill="#1f155a" stroke="#1f155a"></path><path d="M252 67L233 69L277 100Z" fill="#1f1557" stroke="#1f1557"></path><path d="M286 0L236 64L252 67Z" fill="#1f1450" stroke="#1f1450"></path><path d="M230 394L298 398L260 373Z" fill="#1d133a" stroke="#1d133a"></path><path d="M263 450L302 450L298 398Z" fill="#1f1557" stroke="#1f1557"></path><path d="M605 0L593 0L580 104Z" fill="#1f1554" stroke="#1f1554"></path><path d="M205 20L219 81L233 69Z" fill="#1e1340" stroke="#1e1340"></path><path d="M233 69L219 81L277 100Z" fill="#1f1554" stroke="#1f1554"></path><path d="M699 273L718 217L682 251Z" fill="#1f1554" stroke="#1f1554"></path><path d="M702 204L730 196L702 159Z" fill="#1e1340" stroke="#1e1340"></path><path d="M730 196L718 217L765 230Z" fill="#1e133d" stroke="#1e133d"></path><path d="M401 0L296 0L353 5Z" fill="#1f1557" stroke="#1f1557"></path><path d="M353 5L296 0L302 66Z" fill="#1f155a" stroke="#1f155a"></path><path d="M132 112L158 123L128 57Z" fill="#1f1554" stroke="#1f1554"></path><path d="M213 336L230 394L260 373Z" fill="#1f1447" stroke="#1f1447"></path><path d="M655 82L605 0L580 104Z" fill="#1f144a" stroke="#1f144a"></path><path d="M687 61L605 0L655 82Z" fill="#1f1450" stroke="#1f1450"></path><path d="M189 253L187 322L216 249Z" fill="#1f1450" stroke="#1f1450"></path><path d="M213 336L184 387L230 394Z" fill="#1f144a" stroke="#1f144a"></path><path d="M156 334L187 322L146 329Z" fill="#1e133d" stroke="#1e133d"></path><path d="M158 123L186 131L203 124Z" fill="#1f1554" stroke="#1f1554"></path><path d="M203 124L174 152L238 202Z" fill="#1f1450" stroke="#1f1450"></path><path d="M189 252L130 266L189 253Z" fill="#1d133a" stroke="#1d133a"></path><path d="M296 0L286 0L302 66Z" fill="#1f1554" stroke="#1f1554"></path><path d="M728 122L703 116L702 159Z" fill="#1f144d" stroke="#1f144d"></path><path d="M702 159L703 116L685 159Z" fill="#1f155a" stroke="#1f155a"></path><path d="M646 428L678 384L636 409Z" fill="#1e1444" stroke="#1e1444"></path><path d="M636 409L678 384L656 339Z" fill="#1e1340" stroke="#1e1340"></path><path d="M765 230L718 217L699 273Z" fill="#1f144d" stroke="#1f144d"></path><path d="M728 122L702 109L703 116Z" fill="#1f144d" stroke="#1f144d"></path><path d="M703 116L702 109L655 82Z" fill="#1d133a" stroke="#1d133a"></path><path d="M186 131L174 152L203 124Z" fill="#1e1340" stroke="#1e1340"></path><path d="M626 450L646 428L636 409Z" fill="#1e1444" stroke="#1e1444"></path><path d="M765 230L699 273L781 244Z" fill="#1f144a" stroke="#1f144a"></path><path d="M718 217L730 196L702 204Z" fill="#1f155a" stroke="#1f155a"></path><path d="M589 450L626 450L636 409Z" fill="#1f1557" stroke="#1f1557"></path><path d="M252 445L263 450L298 398Z" fill="#1f144d" stroke="#1f144d"></path><path d="M252 445L298 398L230 394Z" fill="#1d133a" stroke="#1d133a"></path><path d="M746 52L687 61L702 109Z" fill="#1d133a" stroke="#1d133a"></path><path d="M702 109L687 61L655 82Z" fill="#1f1557" stroke="#1f1557"></path><path d="M189 450L252 445L230 394Z" fill="#1f155a" stroke="#1f155a"></path><path d="M139 185L150 192L174 152Z" fill="#1f1450" stroke="#1f1450"></path><path d="M174 152L150 192L210 220Z" fill="#1d133a" stroke="#1d133a"></path><path d="M768 159L728 122L702 159Z" fill="#1f1447" stroke="#1f1447"></path><path d="M219 81L158 123L203 124Z" fill="#1f144a" stroke="#1f144a"></path><path d="M186 131L158 123L174 152Z" fill="#1f155a" stroke="#1f155a"></path><path d="M205 20L233 69L236 64Z" fill="#1f1450" stroke="#1f1450"></path><path d="M156 334L184 387L187 322Z" fill="#1f1447" stroke="#1f1447"></path><path d="M187 322L184 387L213 336Z" fill="#1f1554" stroke="#1f1554"></path><path d="M146 329L187 322L129 297Z" fill="#1f1554" stroke="#1f1554"></path><path d="M158 123L139 185L174 152Z" fill="#1f144a" stroke="#1f144a"></path><path d="M129 297L187 322L189 253Z" fill="#1f1450" stroke="#1f1450"></path><path d="M709 450L728 367L678 384Z" fill="#1f1447" stroke="#1f1447"></path><path d="M678 384L728 367L670 331Z" fill="#1f1447" stroke="#1f1447"></path><path d="M702 450L678 384L646 428Z" fill="#1e1444" stroke="#1e1444"></path><path d="M130 266L189 252L150 192Z" fill="#1f155a" stroke="#1f155a"></path><path d="M156 334L146 347L184 387Z" fill="#1f144d" stroke="#1f144d"></path><path d="M286 0L205 20L236 64Z" fill="#1f1447" stroke="#1f1447"></path><path d="M745 341L699 273L693 306Z" fill="#1e1444" stroke="#1e1444"></path><path d="M730 196L768 159L702 159Z" fill="#1f155a" stroke="#1f155a"></path><path d="M82 236L130 266L150 192Z" fill="#1e133d" stroke="#1e133d"></path><path d="M728 367L745 341L693 306Z" fill="#1f1557" stroke="#1f1557"></path><path d="M129 297L146 347L146 329Z" fill="#1f144d" stroke="#1f144d"></path><path d="M146 329L146 347L156 334Z" fill="#1f144d" stroke="#1f144d"></path><path d="M130 266L129 297L189 253Z" fill="#1f144d" stroke="#1f144d"></path><path d="M286 0L210 0L205 20Z" fill="#1f144a" stroke="#1f144a"></path><path d="M169 36L158 123L219 81Z" fill="#1e133d" stroke="#1e133d"></path><path d="M788 204L768 159L730 196Z" fill="#1f1447" stroke="#1f1447"></path><path d="M728 122L756 89L702 109Z" fill="#1f1554" stroke="#1f1554"></path><path d="M169 36L219 81L205 20Z" fill="#1f1554" stroke="#1f1554"></path><path d="M158 123L132 112L139 185Z" fill="#1e1340" stroke="#1e1340"></path><path d="M139 185L82 236L150 192Z" fill="#1f144d" stroke="#1f144d"></path><path d="M130 266L84 277L129 297Z" fill="#1f1557" stroke="#1f1557"></path><path d="M789 322L781 244L699 273Z" fill="#1e133d" stroke="#1e133d"></path><path d="M765 230L788 204L730 196Z" fill="#1f1554" stroke="#1f1554"></path><path d="M173 0L169 36L205 20Z" fill="#1f1554" stroke="#1f1554"></path><path d="M775 130L756 89L728 122Z" fill="#1e1444" stroke="#1e1444"></path><path d="M687 61L705 0L605 0Z" fill="#1e1340" stroke="#1e1340"></path><path d="M792 368L789 322L745 341Z" fill="#1f155a" stroke="#1f155a"></path><path d="M626 450L702 450L646 428Z" fill="#1f144d" stroke="#1f144d"></path><path d="M132 112L110 181L139 185Z" fill="#1f1450" stroke="#1f1450"></path><path d="M185 450L189 450L184 387Z" fill="#1f155a" stroke="#1f155a"></path><path d="M184 387L189 450L230 394Z" fill="#1f144d" stroke="#1f144d"></path><path d="M252 445L189 450L263 450Z" fill="#1e1444" stroke="#1e1444"></path><path d="M781 244L788 204L765 230Z" fill="#1e1444" stroke="#1e1444"></path><path d="M768 159L775 130L728 122Z" fill="#1e133d" stroke="#1e133d"></path><path d="M793 170L775 130L768 159Z" fill="#1f1554" stroke="#1f1554"></path><path d="M746 52L705 0L687 61Z" fill="#1f1450" stroke="#1f1450"></path><path d="M143 426L185 450L184 387Z" fill="#1f1557" stroke="#1f1557"></path><path d="M702 450L709 450L678 384Z" fill="#1f1447" stroke="#1f1447"></path><path d="M745 341L789 322L699 273Z" fill="#1d133a" stroke="#1d133a"></path><path d="M796 29L746 52L756 89Z" fill="#1f1557" stroke="#1f1557"></path><path d="M756 89L746 52L702 109Z" fill="#1d133a" stroke="#1d133a"></path><path d="M794 176L793 170L768 159Z" fill="#1f144d" stroke="#1f144d"></path><path d="M775 130L813 133L756 89Z" fill="#1f1554" stroke="#1f1554"></path><path d="M839 187L794 176L788 204Z" fill="#1e1340" stroke="#1e1340"></path><path d="M788 204L794 176L768 159Z" fill="#1f1554" stroke="#1f1554"></path><path d="M169 36L128 57L158 123Z" fill="#1f1450" stroke="#1f1450"></path><path d="M210 0L173 0L205 20Z" fill="#1e1340" stroke="#1e1340"></path><path d="M792 368L745 341L728 367Z" fill="#1e1340" stroke="#1e1340"></path><path d="M781 244L839 187L788 204Z" fill="#1d133a" stroke="#1d133a"></path><path d="M746 52L722 0L705 0Z" fill="#1f1557" stroke="#1f1557"></path><path d="M746 52L725 0L722 0Z" fill="#1f155a" stroke="#1f155a"></path><path d="M146 0L128 57L169 36Z" fill="#1e133d" stroke="#1e133d"></path><path d="M132 112L92 117L110 181Z" fill="#1f1450" stroke="#1f1450"></path><path d="M128 450L143 426L101 425Z" fill="#1e1340" stroke="#1e1340"></path><path d="M146 347L143 426L184 387Z" fill="#1f1447" stroke="#1f1447"></path><path d="M84 399L146 347L129 297Z" fill="#1f144d" stroke="#1f144d"></path><path d="M81 162L82 236L110 181Z" fill="#1d133a" stroke="#1d133a"></path><path d="M110 181L82 236L139 185Z" fill="#1f1557" stroke="#1f1557"></path><path d="M709 450L736 450L728 367Z" fill="#1f155a" stroke="#1f155a"></path><path d="M82 236L84 277L130 266Z" fill="#1f155a" stroke="#1f155a"></path><path d="M813 335L804 306L789 322Z" fill="#1e1340" stroke="#1e1340"></path><path d="M789 322L804 306L781 244Z" fill="#1f155a" stroke="#1f155a"></path><path d="M128 57L92 117L132 112Z" fill="#1f1554" stroke="#1f1554"></path><path d="M92 117L81 162L110 181Z" fill="#1f144d" stroke="#1f144d"></path><path d="M770 420L792 368L728 367Z" fill="#1e133d" stroke="#1e133d"></path><path d="M173 0L146 0L169 36Z" fill="#1f1557" stroke="#1f1557"></path><path d="M128 57L115 48L92 117Z" fill="#1e1340" stroke="#1e1340"></path><path d="M146 0L115 48L128 57Z" fill="#1f1450" stroke="#1f1450"></path><path d="M736 450L770 420L728 367Z" fill="#1f144a" stroke="#1f144a"></path><path d="M839 187L793 170L794 176Z" fill="#1d133a" stroke="#1d133a"></path><path d="M839 187L813 133L793 170Z" fill="#1d133a" stroke="#1d133a"></path><path d="M793 170L813 133L775 130Z" fill="#1f1554" stroke="#1f1554"></path><path d="M746 52L796 29L725 0Z" fill="#1e1444" stroke="#1e1444"></path><path d="M36 184L66 248L82 236Z" fill="#1e1340" stroke="#1e1340"></path><path d="M82 236L66 248L84 277Z" fill="#1f144a" stroke="#1f144a"></path><path d="M101 425L143 426L84 399Z" fill="#1e133d" stroke="#1e133d"></path><path d="M792 368L813 335L789 322Z" fill="#1e133d" stroke="#1e133d"></path><path d="M854 299L839 187L781 244Z" fill="#1f1450" stroke="#1f1450"></path><path d="M854 299L813 335L858 321Z" fill="#1f1557" stroke="#1f1557"></path><path d="M143 426L146 347L84 399Z" fill="#1f1554" stroke="#1f1554"></path><path d="M143 426L128 450L185 450Z" fill="#1e1444" stroke="#1e1444"></path><path d="M854 299L781 244L804 306Z" fill="#1e1340" stroke="#1e1340"></path><path d="M146 0L120 0L115 48Z" fill="#1f1447" stroke="#1f1447"></path><path d="M115 48L79 45L92 117Z" fill="#1f1557" stroke="#1f1557"></path><path d="M0 140L36 184L81 162Z" fill="#1f1557" stroke="#1f1557"></path><path d="M839 187L831 122L813 133Z" fill="#1d133a" stroke="#1d133a"></path><path d="M813 133L831 122L756 89Z" fill="#1e1340" stroke="#1e1340"></path><path d="M84 399L129 297L84 277Z" fill="#1f1554" stroke="#1f1554"></path><path d="M814 40L796 29L756 89Z" fill="#1e1444" stroke="#1e1444"></path><path d="M66 409L84 399L22 314Z" fill="#1f144d" stroke="#1f144d"></path><path d="M120 0L79 45L115 48Z" fill="#1f155a" stroke="#1f155a"></path><path d="M81 162L36 184L82 236Z" fill="#1f1447" stroke="#1f1447"></path><path d="M831 122L814 40L756 89Z" fill="#1d133a" stroke="#1d133a"></path><path d="M0 140L81 162L92 117Z" fill="#1e1340" stroke="#1e1340"></path><path d="M22 314L84 399L84 277Z" fill="#1f155a" stroke="#1f155a"></path><path d="M858 321L813 335L851 363Z" fill="#1f155a" stroke="#1f155a"></path><path d="M813 335L854 299L804 306Z" fill="#1f1557" stroke="#1f1557"></path><path d="M839 187L894 142L831 122Z" fill="#1f144a" stroke="#1f144a"></path><path d="M55 450L97 450L101 425Z" fill="#1f1450" stroke="#1f1450"></path><path d="M101 425L97 450L128 450Z" fill="#1e1340" stroke="#1e1340"></path><path d="M22 314L84 277L66 248Z" fill="#1e133d" stroke="#1e133d"></path><path d="M84 399L66 409L101 425Z" fill="#1f1450" stroke="#1f1450"></path><path d="M851 363L813 335L850 371Z" fill="#1f1447" stroke="#1f1447"></path><path d="M854 299L869 190L839 187Z" fill="#1e133d" stroke="#1e133d"></path><path d="M895 188L869 190L900 285Z" fill="#1e1444" stroke="#1e1444"></path><path d="M836 0L815 9L814 40Z" fill="#1d133a" stroke="#1d133a"></path><path d="M736 450L810 450L770 420Z" fill="#1d133a" stroke="#1d133a"></path><path d="M770 420L810 450L792 368Z" fill="#1f144a" stroke="#1f144a"></path><path d="M850 371L813 335L792 368Z" fill="#1f1450" stroke="#1f1450"></path><path d="M836 0L814 40L869 0Z" fill="#1f144d" stroke="#1f144d"></path><path d="M814 40L815 9L796 29Z" fill="#1f1554" stroke="#1f1554"></path><path d="M796 29L815 9L725 0Z" fill="#1e1444" stroke="#1e1444"></path><path d="M810 450L850 371L792 368Z" fill="#1e133d" stroke="#1e133d"></path><path d="M900 356L900 285L858 321Z" fill="#1f1450" stroke="#1f1450"></path><path d="M0 237L14 229L0 140Z" fill="#1e1444" stroke="#1e1444"></path><path d="M36 184L14 229L66 248Z" fill="#1f1554" stroke="#1f1554"></path><path d="M0 289L22 314L66 248Z" fill="#1f1450" stroke="#1f1450"></path><path d="M0 289L14 319L22 314Z" fill="#1f144d" stroke="#1f144d"></path><path d="M22 314L0 379L66 409Z" fill="#1e1340" stroke="#1e1340"></path><path d="M0 140L14 229L36 184Z" fill="#1e133d" stroke="#1e133d"></path><path d="M14 229L0 289L66 248Z" fill="#1f1554" stroke="#1f1554"></path><path d="M900 285L869 190L854 299Z" fill="#1d133a" stroke="#1d133a"></path><path d="M869 190L894 142L839 187Z" fill="#1f1554" stroke="#1f1554"></path><path d="M900 183L895 188L900 285Z" fill="#1e133d" stroke="#1e133d"></path><path d="M900 72L814 40L831 122Z" fill="#1e1340" stroke="#1e1340"></path><path d="M815 9L836 0L725 0Z" fill="#1f1557" stroke="#1f1557"></path><path d="M0 450L55 450L66 409Z" fill="#1f155a" stroke="#1f155a"></path><path d="M66 409L55 450L101 425Z" fill="#1f1447" stroke="#1f1447"></path><path d="M0 237L0 289L14 229Z" fill="#1f1447" stroke="#1f1447"></path><path d="M14 319L0 379L22 314Z" fill="#1e1444" stroke="#1e1444"></path><path d="M0 113L0 140L92 117Z" fill="#1f1554" stroke="#1f1554"></path><path d="M900 183L894 142L869 190Z" fill="#1f1447" stroke="#1f1447"></path><path d="M0 16L23 59L6 0Z" fill="#1e133d" stroke="#1e133d"></path><path d="M79 45L23 59L92 117Z" fill="#1f1554" stroke="#1f1554"></path><path d="M900 285L854 299L858 321Z" fill="#1d133a" stroke="#1d133a"></path><path d="M895 188L900 183L869 190Z" fill="#1e133d" stroke="#1e133d"></path><path d="M900 356L851 363L850 371Z" fill="#1f1554" stroke="#1f1554"></path><path d="M900 356L858 321L851 363Z" fill="#1d133a" stroke="#1d133a"></path><path d="M0 289L0 327L14 319Z" fill="#1f1554" stroke="#1f1554"></path><path d="M23 59L0 113L92 117Z" fill="#1e1340" stroke="#1e1340"></path><path d="M900 183L900 138L894 142Z" fill="#1f1554" stroke="#1f1554"></path><path d="M894 142L900 134L831 122Z" fill="#1f144d" stroke="#1f144d"></path><path d="M900 138L900 134L894 142Z" fill="#1f144d" stroke="#1f144d"></path><path d="M23 59L0 76L0 113Z" fill="#1e1444" stroke="#1e1444"></path><path d="M900 400L900 356L850 371Z" fill="#1f144a" stroke="#1f144a"></path><path d="M0 327L0 379L14 319Z" fill="#1f1557" stroke="#1f1557"></path><path d="M0 379L0 391L66 409Z" fill="#1f1557" stroke="#1f1557"></path><path d="M900 134L900 72L831 122Z" fill="#1f1557" stroke="#1f1557"></path><path d="M900 39L869 0L814 40Z" fill="#1f1557" stroke="#1f1557"></path><path d="M885 450L900 400L850 371Z" fill="#1f1554" stroke="#1f1554"></path><path d="M900 72L900 39L814 40Z" fill="#1f144a" stroke="#1f144a"></path><path d="M810 450L885 450L850 371Z" fill="#1d133a" stroke="#1d133a"></path><path d="M6 0L23 59L79 45Z" fill="#1f144a" stroke="#1f144a"></path><path d="M23 59L0 16L0 76Z" fill="#1e1340" stroke="#1e1340"></path><path d="M120 0L6 0L79 45Z" fill="#1e1340" stroke="#1e1340"></path><path d="M0 391L0 450L66 409Z" fill="#1f1447" stroke="#1f1447"></path><path d="M6 0L0 0L0 16Z" fill="#1f155a" stroke="#1f155a"></path><path d="M885 450L900 444L900 400Z" fill="#1f155a" stroke="#1f155a"></path><path d="M885 450L900 450L900 444Z" fill="#1f144d" stroke="#1f144d"></path><path d="M900 39L900 0L869 0Z" fill="#1e1444" stroke="#1e1444"></path></g></svg>